<svg width="249" height="59" viewBox="0 0 249 59" fill="none" xmlns="http://www.w3.org/2000/svg">
<path d="M4.54409 0.00183105L18.2651 49.3547C19.375 52.7655 20.7543 55.6579 24.4235 55.9148C27.291 56.1156 29.3645 56.1794 31.2279 53.7712C33.426 50.9317 33.1645 45.5408 32.5698 42.158C30.4901 30.3175 23.8584 19.5325 26.3538 7.08182C26.771 4.99581 27.2645 3.71462 29.1015 2.49726C32.699 0.112359 37.3723 2.28399 39.3291 5.72903C42.6341 11.545 43.6366 19.1418 45.2385 25.5991C47.7277 35.6415 50.8318 45.5252 53.6261 55.4805C53.7149 55.7327 53.9048 55.8354 54.1679 55.7965L69.7554 0.117029H73.6519L58.1095 56.1467L49.588 56.1343L37.6027 12.6082C36.5846 9.73449 34.1406 3.49824 30.1538 4.809C25.6689 6.28167 26.4114 13.1608 26.908 16.8845C27.9137 24.4082 31.0769 31.208 32.587 38.59C33.4977 43.0422 35.0232 52.764 30.4356 55.6159C28.513 56.8115 25.9802 56.2682 23.86 56.251C21.2073 56.2292 18.5515 56.2868 15.9004 56.2448L0.188364 0.689904L0 0.00183105H4.54409Z" fill="white" style="fill:white;fill-opacity:1;"/>
<path d="M249 0.00152588V56.2539H245.219V2.8083C245.219 2.78028 245.107 2.26034 244.99 2.29303C236.308 15.7976 228.518 29.8627 220.511 43.772L220.121 43.7051L196.282 10.0829C196.21 10.5717 196.384 11.0309 196.401 11.5104C196.831 23.354 195.22 35.7595 198.659 47.2902C199.616 50.5064 202.272 55.955 206.122 56.327C206.522 56.3659 207.085 56.3644 207.51 56.5403L189.062 56.5963C189.326 56.4282 189.511 56.3737 189.681 56.3208C190.061 56.2009 190.252 56.2118 190.755 56.0577C194.415 54.926 195.435 50.276 195.598 46.9228C196.148 35.7035 195.183 24.0374 195.587 12.7714L195.703 9.23136L189.742 0.639784L189.634 0.231921L194.424 0.141631L222.01 39.2995L245.104 0.00152588H249Z" fill="white" style="fill:white;fill-opacity:1;"/>
<path d="M159.607 0.00152588L164.691 0.476328C168.897 1.15039 173.409 2.07197 177.145 4.18134C177.476 4.36814 178.68 5.31619 178.859 5.44073L176.955 9.42284L176.684 9.22669C172.124 5.02975 165.952 1.88984 159.762 1.0492C152.885 0.115167 140.185 2.3335 138.343 10.4238C136.648 17.8727 143.11 22.8807 149.407 24.8049C156.107 26.852 163.309 27.979 170.035 30.0759C176.236 32.0078 181.815 36.1549 181.253 43.3501C180.52 52.7356 172.753 56.9871 164.233 58.0721C163.514 58.164 162.781 58.276 162.013 58.3165C160.452 58.2698 158.873 58.3803 157.315 58.3165C150.363 58.0301 141.547 56.4049 136.226 51.6164C135.621 51.0715 133.187 48.1962 132.806 47.6996C133.055 47.4552 135.684 44.7169 135.815 44.5737C137.082 46.0869 138.236 47.5237 139.724 48.808C146.913 55.0163 155.785 58.7415 165.475 57.135C170.698 56.2694 178.295 52.8726 178.753 46.8076C179.291 39.6763 173.787 35.4513 167.605 33.5396C160.41 31.3166 151.846 30.3297 144.941 27.554C135.977 23.9502 132.89 16.095 138.116 7.55943C141.001 2.84722 149.721 0.295747 154.91 0.00152588H159.608L159.607 0.00152588Z" fill="white" style="fill:white;fill-opacity:1;"/>
<path d="M100.012 0.00155673C104.653 11.0341 109.633 21.9234 114.359 32.9185C116.079 36.9209 117.591 42.6434 123.048 43.3066H108.951C110.356 42.8723 112.463 42.9875 113.456 41.1069C114.74 38.6769 111.403 34.0036 110.307 31.5844L98.351 4.01013L91.0188 21.886C89.6333 26.8037 86.168 36.0118 88.7584 40.7536C89.6784 42.4379 91.6243 43.249 93.48 43.3081H74.4552C74.9471 43.1836 75.5153 43.0591 75.9995 42.9439C79.8103 42.0394 82.4132 39.1237 84.2174 35.8234L97.7905 2.98113C97.557 2.25881 97.0885 0.863983 96.8036 0H100.012V0.00155673Z" fill="white" style="fill:white;fill-opacity:1;"/>
<path d="M113.879 55.7962H81.7888V56.9419H113.879V55.7962Z" fill="white" style="fill:white;fill-opacity:1;"/>
</svg>
