<?xml version="1.0" encoding="UTF-8"?>
<svg id="Layer_1" data-name="Layer 1" xmlns="http://www.w3.org/2000/svg" viewBox="0 0 1609.517 506.606">
  <g id="_3gZbbJ.tif" data-name=" 3gZbbJ.tif">
    <g>
      <g>
        <path d="m200.477,35.38c-.59.14-1.17.31-1.77.51.6-.2,1.18-.36,1.77-.51Z" fill="#fff"/>
        <path d="m198.707,35.89c.6-.2,1.18-.37,1.77-.51-.59.15-1.17.31-1.77.51Z" fill="#fff"/>
        <path d="m198.707,35.89c.6-.2,1.18-.37,1.77-.51-.59.15-1.17.31-1.77.51Z" fill="#fff"/>
        <path d="m482.937,7.08l-99.84,359.92c-.6,2.16-2.57,3.66-4.81,3.66h-.01l-54.74-.07c-2.24-.01-4.21-1.51-4.81-3.68L241.787,87.49c-11.25-31.69-23.43-47.75-36.19-47.75-1.73,0-3.52.3-5.33.9-23.01,7.55-21.42,42.52-17.46,72.15,3.59,26.88,11.74,52.94,19.63,78.15,6.15,19.69,12.52,40.06,16.79,60.94,4.67,22.79,6.83,42.87,6.44,59.65-.65,27.59-8.22,46.08-22.52,54.96-8.25,5.13-17.73,5.72-24.15,5.72-3.86,0-7.71-.24-11.43-.47-3.28-.2-6.38-.39-9.34-.42-2.7-.02-5.55-.03-8.72-.03-4.64,0-9.36.02-13.92.05-4.58.02-9.31.04-13.96.04-5.53,0-10.16-.03-14.56-.1-2.21-.03-4.13-1.51-4.73-3.64L1.387,10.74.177,6.33c-.41-1.51-.1-3.12.85-4.36C1.967.73,3.437,0,4.997,0h29.19c2.25,0,4.22,1.5,4.82,3.66l88.11,316.93c7.63,23.43,15.84,37.25,35.12,38.6,4.02.28,8.27.56,12.1.56,10.93,0,19.31-2.08,27.31-12.41,12.06-15.57,11.86-46.72,7.65-70.67-4.44-25.23-12.29-50.23-19.89-74.4-15.2-48.38-30.92-98.4-20.02-152.77,2.99-14.92,6.87-24.07,19.79-32.64,7.3-4.84,15.44-7.29,24.21-7.29,18.96,0,38.49,11.95,48.6,29.75,16.53,29.09,24.16,64.27,31.53,98.3,2.31,10.68,4.49,20.76,6.94,30.61,10.63,42.91,23.24,86.12,35.43,127.91,5.16,17.68,10.47,35.88,15.6,53.97L448.277,4.39c.6-2.16,2.57-3.65,4.81-3.65h25.03c1.57,0,3.04.73,3.98,1.97.95,1.25,1.26,2.86.84,4.37h0Z" fill="#fff"/>
      </g>
      <path d="m1609.517,5v361.36c0,2.76-2.24,5-5,5h-24.3c-2.76,0-5-2.24-5-5V34.55c-41.49,65.41-80.46,133.63-118.23,199.73-10.19,17.84-20.73,36.29-31.15,54.4-.91,1.57-2.57,2.5-4.33,2.5-.29,0-.58-.02-.86-.07l-2.5-.44c-1.3-.22-2.46-.95-3.22-2.03l-143.05-201.75c.48,19.42.22,39.21-.03,58.42-.71,54.08-1.44,110,14.07,162.04,5.34,17.91,21.32,52.35,43.64,54.5.51.05,1.07.09,1.65.13,2.58.18,5.8.4,8.69,1.59,2.21.91,3.46,3.25,3,5.59-.46,2.34-2.5,4.03-4.89,4.04l-118.51.36h-.02c-2.22,0-4.17-1.47-4.8-3.6-.62-2.14.24-4.43,2.12-5.62,2.17-1.38,3.81-1.9,5-2.27l.16-.05c1.42-.45,2.49-.67,3.53-.87,1-.2,1.95-.39,3.4-.84,22.86-7.06,26.91-40.22,27.59-54.15,1.84-37.65,1-76.82.19-114.71-.74-34.45-1.5-70.07-.26-104.59l.68-21.09-37.34-53.82c-.33-.48-.58-1.01-.73-1.58l-.69-2.62c-.39-1.48-.08-3.06.84-4.29.93-1.22,2.36-1.95,3.9-1.98l30.77-.58c.03-.01.07-.01.1-.01,1.62,0,3.15.79,4.08,2.13l172.74,245.19L1575.177,2.47C1576.067.94,1577.707,0,1579.487,0h25.03c2.76,0,5,2.24,5,5h0Z" fill="#fff"/>
      <g>
        <path d="m895.447,65.84c.93-2.63,2.05-5.16,3.34-7.57-1.29,2.42-2.41,4.95-3.34,7.57Z" fill="#fff"/>
        <path d="m898.787,58.27c-1.29,2.41-2.41,4.94-3.34,7.57.93-2.62,2.05-5.15,3.34-7.57Z" fill="#fff"/>
        <path d="m1174.307,283.85c-2.31,29.57-15.04,53.41-37.85,70.87-19.09,14.61-45.31,24.39-75.83,28.27-.89.12-1.79.24-2.69.36-3.83.5-7.78,1.03-11.94,1.24-.09.01-.18.01-.26.01h-.15c-1.68-.05-3.46-.08-5.44-.08-2.87,0-5.82.06-8.67.11-2.89.05-5.88.1-8.84.1-2.69,0-5.07-.04-7.29-.13-34.97-1.44-99.48-9.11-138.61-44.32-4.34-3.91-20.28-22.82-22.6-25.83-1.54-2.01-1.34-4.84.46-6.62,1.52-1.49,18.17-18.82,19.13-19.87.95-1.05,2.3-1.64,3.71-1.64h.09c1.45.03,2.81.68,3.74,1.79.82.98,1.64,1.96,2.45,2.93,7.1,8.51,13.81,16.54,22.09,23.7,41.42,35.76,87.48,54.67,133.2,54.67,9.34,0,18.8-.79,28.13-2.33,18.37-3.05,37.88-10.48,52.2-19.89,12.36-8.13,27.42-22,28.93-41.9,3.93-52.06-46.32-73.34-68.11-80.07-19.05-5.89-40.14-10.53-60.54-15.02-29.09-6.4-59.17-13.02-85.43-23.57-15.16-6.09-27.96-14.08-38.07-23.73-10.14-9.69-17.35-20.85-21.42-33.16-8.03-24.27-3.45-51.52,13.25-78.8,11.24-18.36,33.84-30.23,50.81-36.96,19.4-7.68,42.22-12.9,61.05-13.97.09,0,.19-.01.28-.01h30.19c.15,0,.31.01.46.03l32.66,3.04c.11.01.22.03.32.04,27.9,4.47,57.1,10.51,81.67,24.39,1.65.93,5.08,3.52,9.06,6.56.98.74,2.09,1.59,2.35,1.77,2.01,1.4,2.72,4.05,1.66,6.27l-12.23,25.57c-.64,1.34-1.84,2.33-3.28,2.69-.41.11-.82.16-1.23.16-1.04,0-2.07-.33-2.93-.95l-1.74-1.25c-.16-.12-.31-.25-.46-.38-29.86-27.48-68.49-46.16-105.99-51.25-6.03-.82-12.68-1.24-19.74-1.24-47.77,0-103.29,18.03-112.3,57.61-10.34,45.42,29.99,74.98,67.66,86.49,20.92,6.4,43.07,11.49,64.5,16.41,22.53,5.18,45.82,10.53,68.04,17.46,22.71,7.08,41.54,17.89,54.43,31.26,15.8,16.39,22.91,36.3,21.12,59.17h0Z" fill="#fff"/>
      </g>
      <path d="m800.417,283.49c-.16,2.64-2.34,4.7-4.99,4.7h-90.56c-2.47,0-4.57-1.81-4.94-4.25-.37-2.45,1.1-4.8,3.46-5.53,2.4-.74,5.01-1.24,7.53-1.73,7.57-1.47,14.72-2.85,18.47-9.95,5.1-9.67-6.18-30.24-13.64-43.86-2.59-4.73-5.04-9.19-6.73-12.92-.01-.02-.02-.05-.03-.07l-72.09-166.26-42.49,103.6c-1.26,4.46-2.79,9.47-4.4,14.77-9.45,31.1-23.74,78.1-10.47,102.4,5.32,9.73,16.97,13.51,26.11,13.8,2.72.09,4.88,2.35,4.84,5.08-.05,2.73-2.27,4.92-5,4.92h-122.21c-2.52,0-4.65-1.88-4.96-4.38-.32-2.5,1.28-4.84,3.73-5.46,2.09-.54,4.37-1.06,6.57-1.57,1.18-.27,2.33-.53,3.42-.79,19.67-4.66,36.3-19.14,49.43-43.03l86.39-209.01c-.89-2.69-2.06-6.21-3.2-9.63-.93-2.8-1.84-5.54-2.57-7.75-.5-1.52-.24-3.2.7-4.5S625.227,0,626.837,0h20.61c2.01,0,3.83,1.21,4.61,3.07,17.02,40.46,35.06,81.32,52.51,120.84,13.08,29.64,26.62,60.29,39.63,90.57,1.47,3.42,2.88,6.93,4.37,10.65,9.34,23.32,19.92,49.75,47.46,53.1,2.63.31,4.55,2.62,4.39,5.26h0Z" fill="#fff"/>
      <rect x="525.387" y="358.41" width="216.14" height="17.36" rx="5" ry="5" fill="#fff"/>
    </g>
  </g>
  <g>
    <path d="m402.859,444.201h10.78v61.353h-10.78v-61.353Z" fill="#fff"/>
    <path d="m456.321,444.201h9.992l32.867,42.421v-42.421h10.605v61.353h-9.027l-33.832-43.648v43.648h-10.605v-61.353h0Z" fill="#fff"/>
    <path d="m551.857,444.201h9.991l32.867,42.421v-42.421h10.605v61.353h-9.027l-33.832-43.648v43.648h-10.604v-61.353h0Z" fill="#fff"/>
    <path d="m644.673,475.053v-.175c0-17.267,13.322-31.729,32.166-31.729s31.991,14.286,31.991,31.553v.176c0,17.266-13.322,31.728-32.166,31.728s-31.991-14.286-31.991-31.553h0Zm52.852,0v-.175c0-11.92-8.678-21.824-20.86-21.824s-20.685,9.729-20.685,21.648v.176c0,11.92,8.677,21.736,20.859,21.736s20.686-9.642,20.686-21.562h0Z" fill="#fff"/>
    <path d="m739.067,444.201h11.92l18.494,47.153,18.405-47.153h11.657l-25.418,61.791h-9.553l-25.506-61.791h0Z" fill="#fff"/>
    <path d="m849.325,443.763h9.992l26.995,61.791h-11.394l-6.224-14.812h-29.011l-6.311,14.812h-11.043l26.994-61.791h.002Zm15.426,37.426l-10.604-24.541-10.518,24.541h21.122Z" fill="#fff"/>
    <path d="m930.312,454.193h-19.458v-9.991h49.783v9.991h-19.458v51.361h-10.867v-51.361Z" fill="#fff"/>
    <path d="m998.938,444.201h10.78v61.353h-10.78v-61.353Z" fill="#fff"/>
    <path d="m1049.684,475.053v-.175c0-17.267,13.322-31.729,32.167-31.729s31.99,14.286,31.99,31.553v.176c0,17.266-13.322,31.728-32.166,31.728s-31.991-14.286-31.991-31.553h0Zm52.851,0v-.175c0-11.92-8.677-21.824-20.859-21.824s-20.685,9.729-20.685,21.648v.176c0,11.92,8.677,21.736,20.86,21.736s20.684-9.642,20.684-21.562h0Z" fill="#fff"/>
    <path d="m1153.194,444.201h9.991l32.867,42.421v-42.421h10.605v61.353h-9.027l-33.832-43.648v43.648h-10.604v-61.353h0Z" fill="#fff"/>
  </g>
</svg>