<?xml version="1.0" encoding="utf-8"?>
<!-- Generator: Adobe Illustrator 22.0.1, SVG Export Plug-In . SVG Version: 6.00 Build 0)  -->
<svg version="1.1" id="Layer_1" xmlns="http://www.w3.org/2000/svg" xmlns:xlink="http://www.w3.org/1999/xlink" x="0px" y="0px"
	 viewBox="0 0 640 480" style="enable-background:new 0 0 640 480;" xml:space="preserve">
<style type="text/css">
	.st0{fill:#1D1D1B;}
	.st1{fill:#FFFFFF;filter:url(#Adobe_OpacityMaskFilter);}
	.st2{mask:url(#mask1_1982_150_2_);}
	.st3{fill:#E2231A;}
	.st4{fill:none;}
</style>
<g>
	<path class="st0" d="M274.2,405.4l-6,21.7H263c-11.6,0-10.3-3.5-5.5-22.4c4.8-18.9,8-23.2,15.2-23.2c7.2,0,7,4.6,5.2,10.3h17.7
		c2.9-11.1,0.9-20.6-19.7-20.6c-22.9,0-29.2,4.8-36.6,33.5c-6.9,26.6-4.6,33.8,20.6,33.8c8,0.1,16.1-0.6,23.9-2.3l8.2-30.8H274.2z"
		/>
	<path class="st0" d="M316.2,426.8c-2.3,0-3.1-0.7-2.7-2.6l4-15.7h23.6l2.7-10.3h-23.6l2.7-10.3c0.6-3.1,3.3-5.3,6.5-5.1h18.8
		l2.7-10.3h-27.5c-11.4,0-14.8,2.1-19.2,19.2l-8.4,31.2c-2.5,10.3,0.6,15.1,9.2,15.1h23.6c4.1,0.2,7.9-2.4,9.2-6.4l1.9-5
		L316.2,426.8z"/>
	<path class="st0" d="M586.4,426.8c-2.4,0-3.1-0.7-2.7-2.6l4-15.7h23.6l2.7-10.3h-23.6l2.7-10.3c0.6-3.1,3.3-5.2,6.5-5.1h18.9
		l2.6-10.3h-27.3c-11.4,0-14.8,2.1-19.2,19.2l-8.1,31.5c-2.5,10.3,0.6,15.1,9.2,15.1h23.7c4.1,0.2,7.9-2.4,9.1-6.4l1.9-5
		L586.4,426.8z"/>
	<path class="st0" d="M196.8,426.8h-3.9l11.4-44.2h5.6c10.3,0,10.3,3.4,5.3,22.4c-4.9,19-7.8,21.9-17.6,21.9 M212.7,372.7H189
		l-16.7,63.5c-0.2,0.8,0.3,1.7,1.1,1.9c0.1,0,0.2,0.1,0.4,0.1h20.6c26.4,0,30.8-5,38.1-33.2c6.4-24.5,2.4-32.6-20.6-32.6"/>
	<path class="st0" d="M543.3,372.7h-23.6l-16.5,63.8c-0.3,0.7,0.1,1.6,0.8,1.9c0.2,0.1,0.4,0.1,0.6,0.1h15.7l14.4-55.5h5.9
		c7.7,0,8.7,2.8,6.7,10.3l-11.1,43.1c-0.3,0.7,0.1,1.6,0.8,1.9c0.2,0.1,0.4,0.1,0.6,0.1h15.8l11.6-45
		C568.9,377.6,562.2,372.7,543.3,372.7z"/>
	<path class="st0" d="M406.5,372.7l-2.7,10.3h17.5c-2.7,2.1-4.6,5-5.3,8.3l-11.5,44.5c-0.3,0.7,0.1,1.6,0.8,1.9
		c0.2,0.1,0.4,0.1,0.6,0.1h17l14.3-54.8h8.6c4.3,0.4,8.2-2.2,9.6-6.3l1.6-4.4L406.5,372.7z"/>
	<path class="st0" d="M160.7,438.1l16.4-63.8c0.3-0.7-0.1-1.6-0.8-1.9c-0.2-0.1-0.4-0.1-0.6-0.1H159l-16.4,63.7
		c-0.2,0.8,0.3,1.7,1.1,1.9c0.1,0,0.2,0,0.4,0.1L160.7,438.1z"/>
	<path class="st0" d="M469.5,428c-7.6,0-8.7-2.8-3.4-23.2c4.3-17.1,8.6-23,15.3-23c6.7,0,8.4,4,3.6,23
		C480.2,423.7,475.3,428,469.5,428z M484.2,371.4c-19.8,0-28.5,3.6-36.4,33.8c-6.8,26.1-1.3,33.7,18.9,33.7
		c20.2,0,28.7-4.2,36.3-33.7C508.5,383.9,507.4,371.4,484.2,371.4z"/>
	<path class="st0" d="M131.3,411.8c-0.4-1.7-1.1-3.2-2.2-4.6c7.3-2,12.9-7.8,14.6-15.2c2.8-10.3-4-19.2-20.6-19.2H97.9l-16.4,63.8
		c-0.3,0.7,0.1,1.6,0.8,1.9c0.2,0.1,0.4,0.1,0.6,0.1h15.8l14.2-55.6h6.7c6.1,0,8.3,3.8,7,8.8c-1.4,6.1-6.8,10.4-13.1,10.3h-2.8
		l6.6,31.9c0.4,2.8,2.9,4.7,5.6,4.3c0.1,0,0.1,0,0.2,0h14.1L131.3,411.8z"/>
	<path class="st0" d="M346.6,415.8c-6.7,16,2,23.3,19.7,23.3c16.1,0,25.3-3.8,29.1-18.8c1.4-4.8,0.4-10-2.7-14
		c-6.1-6.6-17.8-7.8-21.9-11.6c-1.8-1.9-2.3-4.6-1.4-7c0.8-4.1,4.5-7,8.6-6.7c7.3,0,7.6,4.5,5.8,10.3h15.7
		c3.7-11.2-1.1-19.9-19.6-19.9c-15.6,0-24.1,6.1-27,17.9c-0.9,4-0.3,8.1,1.4,11.7c4.3,7.4,15.6,8.2,21.9,12.6
		c2.3,1.7,3.2,4.7,2.1,7.3c-0.4,4.9-4.8,8.5-9.7,8.1c-5.2,0-8.4-3.1-5.5-12.6L346.6,415.8z"/>
	<defs>
		<filter id="Adobe_OpacityMaskFilter" filterUnits="userSpaceOnUse" x="19" y="372.5" width="65.3" height="65.8">
			<feColorMatrix  type="matrix" values="1 0 0 0 0  0 1 0 0 0  0 0 1 0 0  0 0 0 1 0"/>
		</filter>
	</defs>
	<mask maskUnits="userSpaceOnUse" x="19" y="372.5" width="65.3" height="65.8" id="mask1_1982_150_2_">
		<path class="st1" d="M19,372.5h65.3v65.8H19V372.5z"/>
	</mask>
	<g class="st2">
		<path class="st0" d="M48.1,427.2h-9.4l4.7-18.3h8.8c7,0,9.3,4.2,7.9,9.3c-1.6,5.6-6.8,9.3-12.5,9 M57.3,383.4c7,0,9.2,2.8,7.9,7.9
			c-1.2,5-5.7,8.5-10.9,8.5h-8.1l4.4-16.9h6.8 M68.5,403.5c7.4-1.2,13.3-6.7,15.2-13.9c2.7-10.3-3.9-17.2-19.9-17.2H35.6L19,436.3
			c-0.3,0.7,0.1,1.6,0.8,1.9c0.2,0.1,0.4,0.1,0.6,0.1H46c20.6,0,29.5-4.4,32.6-18.5c1.9-6.6-1.8-13.5-8.4-15.4
			c-0.6-0.2-1.2-0.3-1.9-0.4"/>
	</g>
	<path class="st3" d="M206.8,200.1l37.5-132.9c4.8-14.9,18.3-25.3,34-26.1h115.6c1.1,0,1.9,0.9,1.9,2c0,0.7-0.3,1.3-0.9,1.6
		C328.5,91.2,266.6,143.9,210,202c-0.8,0.8-2,0.7-2.8,0c-0.4-0.5-0.6-1.1-0.5-1.7"/>
	<path class="st0" d="M298.2,280.2L335.6,149c0.4-1-0.2-2.1-1.2-2.5c-0.7-0.2-1.4-0.1-2,0.4c-59,51.6-113.6,108.1-163.1,168.8
		c-1,1.3-0.5,3.4,1.3,3.4h162.1c68.3,0,105.6-21.3,119.3-71.9c11-41.1-10.3-69.4-45.1-76.7c-0.6,0-1.1-1.3,0-1.4
		c29.2-5,58.6-16.7,69.2-59.4c11.3-46.1-23.8-71.4-64.3-68.7l-61.7,217.1c-3.8,12.3-14.9,20.9-27.7,21.6L298.2,280.2z"/>
</g>
<rect class="st4" width="640" height="480"/>
</svg>
