<?xml version="1.0" encoding="utf-8"?>
<!-- Generator: Adobe Illustrator 26.0.3, SVG Export Plug-In . SVG Version: 6.00 Build 0)  -->
<svg version="1.0" id="katman_1" xmlns="http://www.w3.org/2000/svg" xmlns:xlink="http://www.w3.org/1999/xlink" x="0px" y="0px"
	 viewBox="0 0 600 450" style="enable-background:new 0 0 600 450;" xml:space="preserve">
<g>
	<g>
		<path d="M223.6,265.4c-1.1,0.4-1.8-0.4-1.8-1.1c-0.4-1.8-1.4-8.6-1.8-10.4c-0.4-1.1,0-1.8,1.1-2.1c4.6-1.4,12.5-4.3,18.9-6.4
			c1.8-0.7,2.1-1.1,3.2-2.9c2.5-4.3,9.3-15.7,12.5-21.8c0.4-0.7,0.4-1.8,0-2.9l-1.4-2.5c-0.4-0.7-1.8-1.8-2.5-1.8
			c-6.4-1.8-15-3.9-19.3-4.6c-1.1-0.4-1.8-0.4-2.9,0l-0.7,0.4c6.1,2.1,11.4,3.9,18.2,6.4c0.7,0.4,1.1,0.7,1.4,1.4l0.7,2.1
			c0.4,0.7,0,1.8-0.4,2.5c-2.9,5.7-7.9,12.9-11.8,17.9c-0.7,0.7-1.4,1.4-2.1,1.4c-3.9,1.4-10.7,3.6-13.9,4.6c-0.7,0-1.1,0-1.4-0.4
			c-2.1-1.4-6.8-5.7-6.8-5.7s-0.4,4.6-0.4,6.8c0,0.4,0,0.4,0,0.7c0.7,1.8,2.1,5.4,2.9,7.1c0,0.4,0.4,0.7,0.4,1.4
			c0.7,3.2,2.9,12.2,2.9,12.2c0.4,1.4,1.1,1.8,2.1,1.4c1.4-0.4,6.4-1.8,8.6-2.5c0.4,0,0.7-0.4,0.7-0.4c1.4-1.1,3.6-3.2,3.6-3.2
			S226.5,265,223.6,265.4z"/>
		<path d="M234.7,237.9c2.5-3.2,5.7-7.9,8.6-12.5l-20.7,17.2c3.2-1.1,7.9-2.5,10.7-3.6C234,238.6,234.4,238.2,234.7,237.9z"/>
		<path d="M235.4,169.3l-3.6,0.4c-0.4,0-0.4,0.4-0.7,0.7l-0.4,4.3c0,0.4,0.4,0.4,0.4,0.4l3.6-0.7c0.4,0,1.1-0.4,1.1-1.1
			c0.4-1.1,0.7-2.1,0-3.2C236.2,169.6,235.8,169.3,235.4,169.3z"/>
		<path d="M199.3,224.3l5.7,6.4l1.8-11.4C203.3,220,200.4,221.8,199.3,224.3z"/>
		<path d="M382.3,222.9c-2.1-3.9-13.6-19.3-27.9-34.3c-0.4-0.7-1.1-1.1-1.8-1.4l-2.5-1.1c0,0,4.3,18.2,6.1,27.9
			c0.4,1.4,0.7,2.5,1.8,3.2c6.4,6.4,10.7,11.1,13.9,16.4c1.4,2.1,2.5,5,2.5,7.5c1.1,14.3,0.4,34.3-1.1,45c-0.4,2.1-0.7,2.9-2.5,4.3
			c-13.9,11.1-36.5,30.7-46.5,40.4c-1.1,1.1-1.4,1.4-2.1,2.5c-1.4,1.8-2.5,4.6-2.5,4.6s-2.5-7.1-2.9-11.1c-0.4-1.8-0.4-2.1,0-4.3
			c1.1-8.2,7.1-27.5,7.9-30.4c0-0.4,0-0.4,0-0.7v-1.8c-2.1,4.3-12.9,28.6-15.4,37.2c-0.4,1.8-0.4,2.5,0,3.9
			c1.4,3.9,5.4,13.9,7.5,18.2c0,0,4.3-8.2,7.1-12.5c0.7-1.1,1.4-2.1,2.5-3.2c7.9-7.1,35.4-30.4,48.3-40c1.8-1.4,2.1-2.1,2.9-3.9
			c5.4-20,7.5-42.9,5-64.7C383.1,224.7,382.7,223.6,382.3,222.9z"/>
		<path d="M325.5,164.6c0.4-1.1,0.7-2.1,0.7-2.9c-0.4-2.5-1.1-5.4-1.8-7.9c0-0.4-0.4-0.7-0.7-1.1l-3.9-1.8c-0.4-0.4-1.1-0.4-1.8-0.4
			c-9.3,1.8-19.3,3.6-26.8,5.4c-0.7,0-1.1,0.4-1.4,1.1l-2.5,3.9c-0.4,0.4,0,0.7,0.4,0.7c1.8,0.4,6.1,1.1,7.5,1.4
			c0.7,0,1.1,0,1.8-0.4c4.6-2.1,12.5-5,18.2-7.1c0.4,0,1.1,0,1.4,0l2.5,0.7c0.4,0,0.7,0.4,1.1,0.7c0.7,1.4,1.4,2.5,1.8,3.6
			c0.4,0.7,0,1.4-0.4,2.5c-1.8,2.9-5.4,7.1-7.5,10c-0.4,0.7-0.7,1.4-0.4,2.1c1.4,4.6,4.3,14.3,5.7,18.9c0.4,0.7,0.4,1.1,1.1,1.4
			l2.1,2.1c0,0-3.6-16.1-4.3-20.7c0-0.7,0-1.4,0.4-2.1C320.5,172.5,323.7,167.5,325.5,164.6z"/>
		<path d="M409.5,177.8c-0.4-1.1-0.7-1.8-1.8-2.5c-10.4-7.9-29.3-18.9-40.7-23.6c-1.4-0.7-3.2-0.7-4.6,0c-5.4,2.1-13.9,5.7-22.9,9.7
			c0,0,3.9,0.4,5.7,0.4c1.1,0,1.4,0,2.1,0c2.9-0.7,7.5-1.8,11.4-2.9c1.8-0.4,3.9,0,5.4,1.1c5.4,3.9,13.6,10.7,18.9,15.4
			c1.1,0.7,2.1,1.4,3.2,1.8c8.2,3.2,11.8,5,13.6,5.7c1.4,0.7,2.1,1.8,2.5,3.2c2.1,8.2,3.6,20.7,4.3,30c0,1.8,0,3.2-0.7,5
			c-2.1,6.4-8.2,17.5-11.4,22.5c-0.4,0.4-0.7,0.7-1.1,1.4c-1.1,1.1-3.2,2.5-4.6,3.6c-0.4,0.4-0.4,0.7-0.4,1.1
			c0,3.6-0.7,10.4-0.7,10.4c7.9-10,15.4-22.9,22.2-36.5c0.7-1.1,0.7-1.8,0.7-2.9C413.1,206.4,412,189.3,409.5,177.8z"/>
		<path d="M304.8,355.1c-1.8-4.3-11.4-27.2-14.3-35.7c-1.1-3.2-1.1-3.9-0.7-7.5c2.1-21.4,10-55.8,11.1-60.4c0.4-1.1,0.4-1.4,0-2.1
			c-0.4-1.8-1.4-7.9-1.4-7.9c-3.6,8.2-16.1,41.5-20.4,61.1c-0.7,3.6-0.7,4.6,0,6.8c6.8,17.2,23.6,48.3,26.5,52.9l-0.7-5.4
			C305.1,355.8,304.8,355.5,304.8,355.1z"/>
		<path d="M289.8,356.2c0,0-3.6-2.5-4.6-3.2s-1.4-1.1-2.1-1.8c-7.5-6.8-34.7-40-42.5-54.3c-1.4-2.5-1.8-3.6-1.8-6.1
			c0-2.9,0.7-8.2,1.1-11.1c0.4-1.8,0.7-3.2,2.5-4.6c4.6-4.3,11.8-11.4,15.7-15.4c1.8-1.8,2.5-2.9,3.6-4.6c3.6-6.8,14.3-30,17.9-39.7
			c0.7-1.8,0.7-2.1,0.4-3.9c-0.7-5-4.6-18.2-4.6-18.2l-0.4,4.3c0,0.4,0,0.7,0,1.1c0.4,1.8,1.4,9.3,1.4,13.2c0,1.4,0,1.8-0.7,3.2
			c-5.4,10.7-26.5,39.3-40,54.7c-1.4,1.8-1.8,2.9-2.5,5c-0.7,3.2-1.4,10.7-2.1,16.4c-0.4,3.2,0,4.3,1.8,7.5
			c8.2,13.6,35.4,45.4,44.7,52.9c0.7,0.4,1.1,1.1,1.8,1.4c3.2,1.8,11.8,6.1,11.8,6.1l-1.4-2.5C289.8,356.6,289.8,356.6,289.8,356.2z
			"/>
		<path d="M249.7,165l17.2-5.4c1.1-0.4,1.8-1.1,2.5-1.8l8.9-15.7c0.4-0.4,0-0.7-0.4-0.7h-7.9c-0.7,0-1.4,0-2.1,0.4
			c-6.8,2.1-16.4,6.4-21.8,9.3c-0.7,0.4-1.1,0.7-1.8,1.4l-8.2,10c-0.4,0.4-0.7,0.7-1.1,0.7l-5.4,2.1c-0.4,0-0.4,0.4-0.7,0.7
			l-0.4,0.7c0,0,11.1-0.4,15-0.7C246.2,165.7,247.6,165.3,249.7,165z"/>
		<path d="M281.2,127.8c21.4-1.8,46.1-1.1,52.2-1.1c1.1,0,1.8,0,2.5,0.4l4.3,1.4c-10.7,0.7-36.8,2.9-47.5,4.6l3.6,0.7
			c0.4,0,0.4,0,0.7,0c7.9-0.4,23.2-1.1,29.7-1.1c1.8,0,2.5,0,4.3,0.7c3.9,1.4,11.8,5,15,6.8c1.8,0.7,2.9,1.1,4.6,1.1
			c3.6,0,8.9,0.4,12.9,1.1c1.1,0,2.1,0.4,3.2,1.1c8.2,3.9,17.9,10,24.7,14.3c0.4,0.4,0.7,0.4,1.4,0.4l3.2,0.7
			c0,0-10.7-10.7-14.7-14.7c-0.7-0.4-1.4-1.1-1.8-1.4c-15.7-8.9-30-16.4-37.9-19.7c-1.4-0.7-2.5-0.7-3.9-1.1
			c-24.3-1.8-49.7-1.4-68.6,0.4c-1.4,0-2.5,0.7-3.2,1.8c-0.7,1.1-1.8,2.9-2.9,4.6c-0.4,0.7-1.1,1.8-1.8,2.5
			c-3.6,2.9-8.9,7.9-12.9,10.4c-0.4,0.4-0.4,0.4-0.7,0.4c-1.4,1.1-6.4,4.3-7.5,5c-0.4,0.4-0.4,0.4-0.7,0.7c-0.4,0.4-1.8,2.1-1.8,2.1
			c15-8.6,34-18.9,40.7-21.8C279,128.1,280.1,128.1,281.2,127.8z"/>
		<path d="M211.1,175.3c-0.4,0.4-0.4,0.4-0.7,0.7c-13.2,9.7-20.7,15.7-23.9,18.2c-1.1,1.1-2.5,2.5-3.6,3.6s-1.1,1.4-1.1,2.1
			c0,0.7,0,1.4,0,2.1c0,0.4,0,0.4,0.4,0.7c0.4,0.4,1.1,1.4,1.4,1.8h0.4c2.1-1.4,4.6-3.6,7.1-5.4c0.4,0,0.7-0.4,0.7-0.7
			c0.4-0.7,1.1-1.8,1.4-2.5c0.4-0.4,0.4-0.7,0.7-1.1c0.4-0.4,2.1-1.4,2.1-1.4s-1.1,4.6-1.8,6.4c-0.4,0.7-0.7,1.1-0.7,1.1
			c-2.1,2.1-5.4,6.1-7.1,8.2c-0.7,0.7-0.4,1.8,0,2.5c1.8,2.5,5,6.8,7.1,8.9c0.7,0.7,1.1,1.1,1.4,1.4c0.7,0.4,1.4,0.7,1.4,0.7
			s1.8-8.2,2.5-10.7c0.4-0.7,0.7-1.4,1.8-1.8c8.6-2.1,27.5-5.4,27.5-5.4c-2.1-2.5-8.6-9.3-10.7-11.1c-0.7-0.4-1.1-0.7-1.8-0.7
			c-2.5-0.4-10.4-0.7-10.4-0.7s0.7-0.7,1.1-1.4c0.4-0.4,0.7-0.7,1.4-1.1c9.7-3.6,22.9-8.2,30.4-11.4c1.8-0.7,2.5-1.1,3.9-2.5
			c0.7-0.7,1.8-1.8,2.5-2.9l0.4-0.4c0-0.4,0-0.7,0-0.7s-3.2,2.5-4.6,3.2c-1.1,0.7-1.8,1.1-3.2,1.4c-2.9,0.7-7.9,1.8-10.7,2.5
			c-0.7,0.4-1.1,0.4-1.8,0c-0.4,0-1.4-0.7-1.8-0.7c-0.7-0.4-0.7-0.4-1.4,0c-2.5,0.7-10,2.5-10,2.5s3.2-2.9,3.6-3.2
			c0.4-0.4,0.4-0.4,1.1-0.7c2.5-1.1,5.7-2.1,8.2-3.2c0.7-0.4,0.7-0.7,1.1-1.1c0-2.1,0.7-5.7,1.1-7.5c0-0.7,0.4-0.7,0.7-1.1
			c1.4-1.1,7.1-5.7,8.6-6.4c0,0,0,0,0.4-0.4l1.4-1.8c-3.9,2.5-11.1,6.8-15,8.9c-1.4,1.1-2.5,1.4-3.9,2.9l-0.4,0.4
			C216.5,168.5,212.6,173.5,211.1,175.3z"/>
	</g>
	<g>
		<g>
			<path d="M205.1,101c0-7.5,0-15.4,0-22.9c9.7-0.7,19.7-1.4,29.3-2.1c0,1.4,0,2.5,0,3.9c-8.6,0.4-17.2,1.1-25.7,1.8
				c0,1.8,0,3.9,0,5.7c7.5-0.7,15-1.1,22.5-1.8c0,1.4,0,2.5,0,3.9c-7.5,0.4-15,1.1-22.5,1.8c0,2.1,0,3.9,0,6.1
				c8.6-0.7,17.2-1.4,25.7-1.8c0,1.4,0,2.5,0,3.9C224.7,99.6,214.7,100.3,205.1,101z"/>
		</g>
		<g>
			<path d="M165,105.3c0-7.5,0-15.4,0-22.9c7.9-1.1,15.4-1.8,23.2-2.5c1.4,0,2.5,0,3.2,0c1.1,0.4,1.8,0.7,2.5,1.4
				c0.7,0.7,1.1,1.4,1.1,2.1c0,0.7,0.4,1.4,0.4,2.5c0,1.1,0,1.8,0,2.9c0,0.7,0,1.8-0.4,2.5c-0.4,0.7-0.7,1.8-1.1,2.5
				c-0.7,0.7-1.4,1.4-2.5,1.8c-1.1,0.4-2.1,0.7-3.2,0.7c-6.4,0.7-12.9,1.4-19.7,2.1c0,2.5,0,4.6,0,7.1
				C167.5,104.9,166.5,105.3,165,105.3z M169,93.8c6.8-0.7,13.9-1.8,20.7-2.5c1.1,0,2.1-1.1,2.1-2.5c0-1.4,0-2.9,0-3.9
				c0-1.1-1.1-2.1-2.1-1.8c-6.8,0.7-13.9,1.4-20.7,2.5C169,88.5,169,91,169,93.8z"/>
		</g>
		<g>
			<path d="M373.4,99.2c-1.4,0-2.5-0.4-3.6-0.4c-1.1-0.4-2.1-0.7-2.9-1.4c-0.7-0.7-1.4-1.4-1.4-2.5c-0.4-0.7-0.4-1.8-0.4-2.5
				c0-3.6,0-6.8,0-10.4c0-1.1,0-1.8,0.4-2.5c0.4-1.1,0.7-1.8,1.4-2.1c0.7-0.4,1.4-0.7,2.9-1.1c1.1,0,2.1,0,3.6,0
				c5,0.4,10.4,0.7,15.4,1.1c1.4,0,2.5,0.4,3.6,0.7c1.1,0.4,2.1,0.7,2.9,1.4c0.7,0.7,1.4,1.4,1.4,2.5c0.4,0.7,0.4,1.8,0.4,2.9
				c0,3.6,0,6.8,0,10.4c0,1.1,0,1.8-0.4,2.5c-0.4,1.1-0.7,1.8-1.4,2.1c-0.7,0.4-1.4,0.7-2.9,1.1c-1.1,0-2.1,0-3.6,0
				C383.4,99.9,378.4,99.6,373.4,99.2z M370.9,79.9c-1.1,0-2.1,0.7-2.1,2.1c0,3.6,0,7.5,0,11.1c0,1.1,1.1,2.1,2.1,2.1
				c0.7,0,1.4,0,1.8,0h0.4c5,0.4,10,0.7,15.4,1.1h0.4c0.7,0,1.4,0,2.1,0c1.1,0,2.1-0.7,2.1-1.8c0-3.6,0-7.5,0-11.1
				c0-1.1-1.1-2.1-2.1-2.5C384.1,81,377.7,80.3,370.9,79.9z"/>
		</g>
		<g>
			<path d="M418.1,103.1c0-6.4,0-12.9,0-19.3c-4.6-0.4-8.9-1.1-13.6-1.4c0-1.4,0-2.5,0-3.9c10.4,1.1,20.4,2.1,30.7,3.6
				c0,1.4,0,2.5,0,3.9c-4.6-0.7-8.9-1.1-13.6-1.8c0,6.4,0,12.9,0,19.3C420.6,103.5,419.2,103.5,418.1,103.1z"/>
		</g>
		<g>
			<path d="M325.9,97.1c0-7.5,0-15.4,0-22.9c9.7,0.4,19.7,0.7,29.3,1.1c0,1.4,0,2.5,0,3.9c-8.6-0.4-17.2-0.7-25.7-1.1
				c0,1.8,0,3.9,0,5.7c7.5,0.4,15,0.4,22.5,0.7c0,1.4,0,2.5,0,3.9c-7.5-0.4-15-0.7-22.5-0.7c0,2.1,0,3.9,0,6.1
				c8.6,0.4,17.2,0.7,25.7,1.1c0,1.4,0,2.5,0,3.9C345.5,97.8,335.9,97.4,325.9,97.1z"/>
		</g>
		<g>
			<path d="M293.3,96.7c-1.4,0-2.5,0-3.6-0.4c-1.1-0.4-2.1-0.7-2.9-1.1c-0.7-0.7-1.4-1.4-1.4-2.1c-0.4-0.7-0.4-1.8-0.4-2.5
				c0-3.2,0-6.8,0-10c0-2.1,0.7-3.9,1.8-5s2.9-1.4,5.7-1.4c7.1,0,14.7,0,21.8,0c0,1.4,0,2.5,0,3.9c-7.9,0-15.7,0-23.2,0
				c-1.1,0-2.1,1.1-2.1,2.1c0,3.6,0,7.1,0,10.7v0.4c0,1.1,1.1,2.1,2.1,2.1c0.7,0,1.4,0,1.8,0h0.4c6.4,0,12.5,0,18.9,0
				c0-2.1,0-3.9,0-6.1c-3.9,0-8.2,0-12.2,0c0-1.4,0-2.5,0-3.9c5.4,0,10.7,0,16.1,0c0,4.6,0,8.9,0,13.6
				C308.4,96.7,300.8,96.7,293.3,96.7z"/>
		</g>
		<g>
			<path d="M252.6,97.8c-1.4,0-2.5,0-3.6,0s-2.1-0.4-2.9-1.1c-0.7-0.7-1.4-1.4-1.4-2.1c-0.4-0.7-0.4-1.8-0.4-2.5
				c0-5.4,0-11.1,0-16.4c1.4,0,2.5,0,3.9-0.4c0,5.7,0,11.4,0,17.2c0,1.1,1.1,2.1,2.1,2.1c6.4-0.4,12.9-0.7,19.3-0.7
				c1.1,0,2.1-1.1,2.1-2.1c0-5.7,0-11.4,0-17.2c1.4,0,2.5,0,3.9,0c0,5.4,0,11.1,0,16.4c0,1.1,0,1.8-0.4,2.5
				c-0.4,1.1-0.7,1.8-1.4,2.5c-0.7,0.7-1.4,1.1-2.9,1.1c-1.1,0.4-2.1,0.4-3.6,0.4C262.2,97.4,257.2,97.8,252.6,97.8z"/>
		</g>
	</g>
	<path d="M464.6,57.4c-56.1-9.7-111.2-14.3-164.4-14.3s-108.3,4.6-164.4,14.3c-0.7,22.5-1.8,57.2-0.4,86.5
		c3.6,65.8,17.9,116.5,45.4,160.5c27.5,43.6,69.7,81.1,119,103.3c49.3-22.2,91.9-59.7,119-103.3c27.5-43.6,41.8-94.7,45.4-160.5
		C466.3,114.6,465.6,79.9,464.6,57.4z M458.5,143.5c-3.6,64.7-17.5,114.4-44.7,157.3c-26.8,42.9-67.2,78.3-113.7,99.7
		c-46.5-21.8-86.9-57.2-113.7-99.7c-26.8-42.9-41.1-92.9-44.7-157.3c-1.1-21.1-1.1-47.5,0-80.8c52.5-8.9,105.8-13.2,158.3-13.2
		s105.8,4.3,158.3,13.2C459.6,96,459.6,122.4,458.5,143.5z"/>
</g>
</svg>
