<svg width="101" height="96" viewBox="0 0 101 96" fill="none" xmlns="http://www.w3.org/2000/svg">
<path d="M16.2956 88.5593C19.2483 86.7166 21.2242 83.4531 21.2242 79.5679C21.2242 73.4182 16.4954 69.0225 10.5678 69.0225C4.75112 69.0225 0.00012207 73.507 0.00012207 79.5679C0.00012207 85.5844 4.61792 90.1355 10.5678 90.1355C11.8998 90.1355 13.1653 89.9135 14.3419 89.4695C17.1836 93.0883 20.9134 95.6414 25.4646 95.6414C26.1306 95.6414 28.4839 95.7524 28.4839 93.5323C27.4405 93.5989 26.508 93.6655 25.7532 93.6655C21.9346 93.6433 18.7821 91.4676 16.2956 88.5593ZM10.59 87.9377C5.83897 87.9155 2.42003 84.2301 2.42003 79.5457C2.42003 74.8169 5.92777 71.1981 10.5678 71.1981C15.2966 71.1981 18.7377 74.7725 18.7377 79.5679C18.7377 83.9415 15.2966 87.9599 10.59 87.9377Z" fill="white" style="fill:white;fill-opacity:1;"/>
<path d="M60.9415 69.3779H60.7639V77.6145C59.6761 76.1492 57.5448 75.2612 55.5245 75.2612C51.5061 75.2612 48.62 78.5469 48.62 82.5431C48.62 86.6724 51.4395 90.158 55.5245 90.158C57.5892 90.158 59.7205 89.3144 60.8527 87.6271C60.8527 89.0036 61.7185 89.8472 62.8286 89.8472H62.873V71.3094C62.873 70.2216 62.0072 69.3779 60.9415 69.3779ZM55.8131 88.1377C52.927 88.1377 50.8401 85.6512 50.8401 82.5431C50.8401 79.7014 52.8604 77.2815 55.8131 77.2815C58.6992 77.2815 60.7639 79.3905 60.7639 82.5431C60.7861 85.851 58.7658 88.1377 55.8131 88.1377Z" fill="white" style="fill:white;fill-opacity:1;"/>
<path d="M43.0699 69.3779H42.8923V77.6145C41.8045 76.1492 39.6732 75.2612 37.6529 75.2612C33.6345 75.2612 30.7484 78.5469 30.7484 82.5431C30.7484 86.6725 33.5679 90.158 37.6529 90.158C39.7176 90.158 41.8489 89.3144 42.9811 87.6271C42.9811 89.0036 43.847 89.8472 44.957 89.8472H45.0014V71.3094C45.0236 70.2216 44.1578 69.3779 43.0699 69.3779ZM37.9637 88.1377C35.0776 88.1377 32.9907 85.6512 32.9907 82.5431C32.9907 79.7014 35.011 77.2815 37.9637 77.2815C40.8498 77.2815 42.9145 79.3905 42.9145 82.5431C42.9145 85.851 40.9164 88.1377 37.9637 88.1377Z" fill="white" style="fill:white;fill-opacity:1;"/>
<path d="M67.5574 75.7495H67.3798V87.9378C67.3798 88.9591 68.2456 89.8471 69.289 89.8471H69.4888V77.7032C69.4888 76.5931 68.623 75.7495 67.5574 75.7495Z" fill="white" style="fill:white;fill-opacity:1;"/>
<path d="M25.2869 75.7495H25.1093V87.9378C25.1093 88.9591 25.9751 89.8471 27.0185 89.8471H27.2183V77.7032C27.2183 76.5931 26.3525 75.7495 25.2869 75.7495Z" fill="white" style="fill:white;fill-opacity:1;"/>
<path d="M98.572 75.7497V77.6145C97.4842 76.1493 95.3529 75.2612 93.3326 75.2612C89.3142 75.2612 86.4281 78.547 86.4281 82.5431C86.4281 86.6281 89.2476 90.1581 93.3326 90.1581C95.3973 90.1581 97.5286 89.3144 98.6608 87.6271C98.6608 89.0036 99.5266 89.8472 100.637 89.8472H100.681V75.7497H98.572ZM93.6434 88.1378C90.7573 88.1378 88.6704 85.6069 88.6704 82.5431C88.6704 79.7014 90.6907 77.2815 93.6434 77.2815C96.5295 77.2815 98.5942 79.3906 98.5942 82.5431C98.5942 85.7845 96.5739 88.1378 93.6434 88.1378Z" fill="white" style="fill:white;fill-opacity:1;"/>
<path d="M26.1525 72.064C26.8851 72.064 27.4845 71.4646 27.4845 70.732C27.4845 69.9993 26.8851 69.3999 26.1525 69.3999C25.4199 69.3999 24.8204 69.9993 24.8204 70.732C24.8204 71.4646 25.4199 72.064 26.1525 72.064Z" fill="white" style="fill:white;fill-opacity:1;"/>
<path d="M68.4232 69.3779C67.6906 69.3779 67.0912 69.9774 67.0912 70.71C67.0912 71.4426 67.6906 72.042 68.4232 72.042C69.1559 72.042 69.7553 71.4426 69.7553 70.71C69.7775 69.9774 69.1781 69.3779 68.4232 69.3779Z" fill="white" style="fill:white;fill-opacity:1;"/>
<path d="M79.1019 86.5836L75.0613 76.9928C74.7727 76.3046 74.4841 75.7717 73.0411 75.7717H72.2418L77.9031 89.0479C76.9484 91.2458 76.016 92.7999 75.3056 93.2217C74.4175 93.8433 73.3741 93.7545 71.9088 93.5547C71.9088 95.6416 73.8181 95.6416 74.0179 95.6416C76.016 95.6416 77.7921 94.2651 78.7689 92.0228L85.851 75.7717H83.5643L79.1019 86.5836Z" fill="white" style="fill:white;fill-opacity:1;"/>
<path d="M0 51.0619L0.62163 62.8062C0.643831 63.0282 0.821437 63.2058 1.04345 63.2058C1.26546 63.2058 1.44306 63.0282 1.46526 62.8062L2.1979 48.5532C1.44307 49.2415 0.71043 50.0407 0 51.0619Z" fill="#0BC0FF" style="fill:#0BC0FF;fill:color(display-p3 0.0431 0.7529 1.0000);fill-opacity:1;"/>
<path d="M6.7935 60.786C6.8157 61.008 6.9933 61.1857 7.21531 61.1857C7.43732 61.1857 7.63714 61.008 7.63714 60.786L8.50297 44.6016C7.59273 44.9568 6.72689 45.312 5.99426 45.8004L6.7935 60.786Z" fill="#0BC0FF" style="fill:#0BC0FF;fill:color(display-p3 0.0431 0.7529 1.0000);fill-opacity:1;"/>
<path d="M12.0995 43.4248L12.9653 59.1653C12.9875 59.3873 13.1651 59.5427 13.3649 59.5427C13.587 59.5427 13.7646 59.3651 13.7646 59.1653L14.697 42.0706C13.8534 42.67 12.9209 43.0918 12.0995 43.4248Z" fill="#0BC0FF" style="fill:#0BC0FF;fill:color(display-p3 0.0431 0.7529 1.0000);fill-opacity:1;"/>
<path d="M7.21523 34.145C6.4826 34.145 5.88318 34.7444 5.88318 35.4771C5.88318 36.2097 6.4826 36.8091 7.21523 36.8091C7.94787 36.8091 8.54729 36.2097 8.54729 35.4771C8.54729 34.7444 7.94787 34.145 7.21523 34.145Z" fill="#0BC0FF" style="fill:#0BC0FF;fill:color(display-p3 0.0431 0.7529 1.0000);fill-opacity:1;"/>
<path d="M18.0715 37.4751L19.0262 57.8334C19.0484 58.0776 19.2482 58.2774 19.4924 58.2774C19.7366 58.2774 19.9586 58.0776 19.9586 57.8334L21.0243 34.811C19.448 35.2773 18.893 35.9433 18.0715 37.4751Z" fill="#66D603" style="fill:#66D603;fill:color(display-p3 0.4000 0.8392 0.0118);fill-opacity:1;"/>
<path d="M25.1759 56.7233C25.1981 57.0119 25.4201 57.2339 25.7087 57.2339C25.9974 57.2339 26.2416 57.0119 26.2416 56.7233L27.2406 33.9895C26.3304 34.1671 25.8197 34.1893 24.1769 34.3003L25.1759 56.7233Z" fill="#66D603" style="fill:#66D603;fill:color(display-p3 0.4000 0.8392 0.0118);fill-opacity:1;"/>
<path d="M30.2379 31.9696L31.2592 55.9022C31.2814 56.213 31.5256 56.4572 31.8364 56.4572C32.1472 56.4572 32.3914 56.213 32.4136 55.9022L33.5236 29.0168C31.5256 29.9937 31.8808 30.0381 30.2379 31.9696Z" fill="#66D603" style="fill:#66D603;fill:color(display-p3 0.4000 0.8392 0.0118);fill-opacity:1;"/>
<path d="M25.5312 28.4393C26.2638 28.4393 26.8632 27.8398 26.8632 27.1072C26.8632 26.3746 26.2638 25.7751 25.5312 25.7751C24.7985 25.7751 24.1991 26.3746 24.1991 27.1072C24.1991 27.8398 24.7985 28.4393 25.5312 28.4393Z" fill="#66D603" style="fill:#66D603;fill:color(display-p3 0.4000 0.8392 0.0118);fill-opacity:1;"/>
<path d="M86.8944 59.1651C86.9166 59.3872 87.0942 59.5648 87.3162 59.5648C87.5382 59.5648 87.7381 59.3872 87.7381 59.1651L88.6261 43.5135C86.7612 42.6255 86.0286 42.0038 85.8954 41.8928L86.8944 59.1651Z" fill="#FF00A3" style="fill:#FF00A3;fill:color(display-p3 1.0000 0.0000 0.6392);fill-opacity:1;"/>
<path d="M93.0439 60.7637C93.0661 61.0079 93.2438 61.1855 93.488 61.1855C93.7322 61.1855 93.9098 61.0079 93.932 60.7637L94.7312 46.1111C93.9542 45.5561 93.0883 45.1342 92.1781 44.7346L93.0439 60.7637Z" fill="#FF00A3" style="fill:#FF00A3;fill:color(display-p3 1.0000 0.0000 0.6392);fill-opacity:1;"/>
<path d="M98.5057 48.7527L99.2384 62.7837C99.2606 63.0057 99.4382 63.1833 99.6602 63.1833C99.8822 63.1833 100.082 63.0057 100.082 62.7837L100.659 51.6166C99.971 50.4178 99.2384 49.5075 98.5057 48.7527Z" fill="#FF00A3" style="fill:#FF00A3;fill:color(display-p3 1.0000 0.0000 0.6392);fill-opacity:1;"/>
<path d="M93.5768 36.4536C92.8442 36.4536 92.2448 37.053 92.2448 37.7857C92.2448 38.5183 92.8442 39.1177 93.5768 39.1177C94.3094 39.1177 94.9089 38.5183 94.9089 37.7857C94.9089 37.053 94.3094 36.4536 93.5768 36.4536Z" fill="#FF00A3" style="fill:#FF00A3;fill:color(display-p3 1.0000 0.0000 0.6392);fill-opacity:1;"/>
<path d="M68.4011 55.9686C68.4233 56.2351 68.6454 56.4571 68.9118 56.4571C69.1782 56.4571 69.4002 56.2351 69.4224 55.9686L70.4436 31.8806C67.4021 28.2175 68.6453 29.7937 67.2245 28.1509L68.4011 55.9686Z" fill="#FF7800" style="fill:#FF7800;fill:color(display-p3 1.0000 0.4706 0.0000);fill-opacity:1;"/>
<path d="M74.4842 56.7678C74.5065 57.0342 74.7063 57.234 74.9727 57.234C75.2391 57.234 75.4611 57.0342 75.4611 56.7678L76.4601 34.5003C74.9949 34.4114 74.3733 34.3448 73.463 34.1672L74.4842 56.7678Z" fill="#FF7800" style="fill:#FF7800;fill:color(display-p3 1.0000 0.4706 0.0000);fill-opacity:1;"/>
<path d="M79.6349 34.9441L80.7005 57.811C80.7227 58.0775 80.9225 58.2773 81.189 58.2773C81.4554 58.2773 81.6774 58.0775 81.6774 57.811L82.632 37.253C81.9216 36.0097 81.3666 35.3659 79.6349 34.9441Z" fill="#FF7800" style="fill:#FF7800;fill:color(display-p3 1.0000 0.4706 0.0000);fill-opacity:1;"/>
<path d="M74.9726 27.8841C75.7053 27.8841 76.3047 27.2847 76.3047 26.552C76.3047 25.8194 75.7053 25.22 74.9726 25.22C74.24 25.22 73.6406 25.8194 73.6406 26.552C73.6184 27.2847 74.24 27.8841 74.9726 27.8841Z" fill="#FF7800" style="fill:#FF7800;fill:color(display-p3 1.0000 0.4706 0.0000);fill-opacity:1;"/>
<path d="M81.2776 30.4817C81.7438 30.4817 82.1212 30.1043 82.1212 29.6381C82.1212 29.1718 81.7438 28.7944 81.2776 28.7944C80.8114 28.7944 80.434 29.1718 80.434 29.6381C80.434 30.1043 80.8114 30.4817 81.2776 30.4817Z" fill="#FF7800" style="fill:#FF7800;fill:color(display-p3 1.0000 0.4706 0.0000);fill-opacity:1;"/>
<path d="M37.3865 55.3467C37.4087 55.6575 37.6529 55.9017 37.9637 55.9017C38.2745 55.9017 38.5187 55.6575 38.5409 55.3467L39.9174 18.4709C39.7398 18.6486 37.5419 20.7354 36.1876 23.4662L37.3865 55.3467Z" fill="#FABB00" style="fill:#FABB00;fill:color(display-p3 0.9804 0.7333 0.0000);fill-opacity:1;"/>
<path d="M43.5138 54.9471C43.536 55.2801 43.8024 55.5466 44.1354 55.5466C44.4684 55.5466 44.7571 55.2801 44.7571 54.9471L46.2445 12.7432C45.1345 13.2538 43.5804 14.608 42.1595 15.9845L43.5138 54.9471Z" fill="#FABB00" style="fill:#FABB00;fill:color(display-p3 0.9804 0.7333 0.0000);fill-opacity:1;"/>
<path d="M48.2648 12.0992L49.6634 54.8138C49.6856 55.169 49.9742 55.4354 50.3073 55.4354C50.6625 55.4354 50.9511 55.1468 50.9511 54.8138L52.3941 11.7218C51.1953 11.6996 51.3063 11.2334 48.2648 12.0992Z" fill="#FABB00" style="fill:#FABB00;fill:color(display-p3 0.9804 0.7333 0.0000);fill-opacity:1;"/>
<path d="M54.3702 11.6331L55.9465 55.0137C55.9687 55.3245 56.2129 55.5687 56.5237 55.5687C56.8345 55.5687 57.0787 55.3245 57.101 55.0137L58.655 11.5221C57.5006 11.3667 55.9021 11.5221 54.3702 11.6331Z" fill="#FABB00" style="fill:#FABB00;fill:color(display-p3 0.9804 0.7333 0.0000);fill-opacity:1;"/>
<path d="M60.7196 13.165L62.2959 55.3468C62.3181 55.6576 62.5623 55.9018 62.8731 55.9018C63.1839 55.9018 63.4281 55.6576 63.4503 55.3468L64.627 24.1323C62.7843 18.8041 62.6733 16.0956 60.7196 13.165Z" fill="#FABB00" style="fill:#FABB00;fill:color(display-p3 0.9804 0.7333 0.0000);fill-opacity:1;"/>
<path d="M50.3518 2.66411C51.0844 2.66411 51.6839 2.06469 51.6839 1.33206C51.6839 0.599425 51.0844 0 50.3518 0C49.6192 0 49.0198 0.599425 49.0198 1.33206C48.9976 2.06469 49.597 2.66411 50.3518 2.66411Z" fill="#FABB00" style="fill:#FABB00;fill:color(display-p3 0.9804 0.7333 0.0000);fill-opacity:1;"/>
<path d="M56.5681 5.75001C57.0343 5.75001 57.4118 5.3726 57.4118 4.90638C57.4118 4.44016 57.0343 4.06274 56.5681 4.06274C56.1019 4.06274 55.7245 4.44016 55.7245 4.90638C55.7467 5.3948 56.1241 5.75001 56.5681 5.75001Z" fill="#FABB00" style="fill:#FABB00;fill:color(display-p3 0.9804 0.7333 0.0000);fill-opacity:1;"/>
</svg>
