<svg width="131" height="66" viewBox="0 0 131 66" fill="none" xmlns="http://www.w3.org/2000/svg">
<path d="M49.8708 0V13.6841H63.2503V0H49.8708ZM63.2503 13.6841V26.6589H76.6302V13.6841H63.2503ZM63.2503 26.6589H49.8708V49.6683C49.8708 54.3308 51.2901 58.0821 53.8233 60.717C56.6618 63.5557 60.818 65.0756 65.9874 65.0756C71.2586 65.0756 75.0084 63.4541 76.6302 62.0348V51.0875C75.4143 52.0001 72.9818 53.1141 69.839 53.1141C67.609 53.1141 65.9873 52.6075 64.7704 51.4925C63.7571 50.4792 63.2503 48.7568 63.2503 46.4249V26.6589ZM20.9818 12.1641C14.799 12.1641 9.62957 14.1907 6.0819 17.4342C3.0409 20.2727 1.31753 24.1246 1.31753 28.3825C1.31753 32.1325 2.5344 35.2752 4.96713 37.7077C7.39968 40.1404 10.9473 41.9645 15.6099 43.0796L23.3136 44.9049C27.1656 45.8164 28.889 47.2357 28.889 49.77C28.889 52.9117 26.0506 54.7359 21.3878 54.7359C18.0425 54.7359 15.3057 53.6219 13.5823 51.7965C12.3665 50.5809 11.6563 48.9591 11.5555 47.1339L0 49.6683C0.304316 53.1141 1.92588 56.1562 4.35861 58.5877C8.21041 62.6431 14.3932 65.0756 21.3878 65.0756C28.1788 65.0756 33.754 62.9474 37.4024 59.3998C40.1404 56.662 41.7621 53.0134 41.7621 48.7567C41.7621 44.9048 40.3428 41.4578 37.7067 38.8227C35.0718 36.1866 31.3205 34.2609 26.5572 33.3493L18.7517 31.8283C15.5084 31.2198 13.6841 29.5981 13.6841 27.3679C13.6841 24.4287 16.5213 22.4021 21.0835 22.4021C23.9209 22.4021 26.3547 23.3136 27.9765 24.9354C28.9898 26.0503 29.6987 27.4697 29.9023 29.0915L41.1535 26.5572C40.8494 23.3136 39.3284 20.4762 36.9977 18.1442C33.3482 14.4948 27.6721 12.1641 20.9818 12.1641ZM106.532 12.1641C99.3366 12.1641 92.8485 14.9007 88.1857 19.5635C83.5229 24.3281 80.6855 30.9154 80.6855 38.6192C80.6855 46.323 83.6249 52.9118 88.3895 57.6762C93.051 62.339 99.6406 65.0756 106.938 65.0756C114.44 65.0756 120.218 62.339 124.17 58.4872C127.313 55.4462 129.239 51.8984 130.252 48.249L118.392 44.2964C117.886 46.1205 116.872 48.0465 115.249 49.5665C113.323 51.3918 110.688 52.7093 106.938 52.7093C103.492 52.7093 100.248 51.3918 97.9172 49.06C95.5854 46.6273 94.1671 43.0795 94.1671 38.6192C94.1671 34.0582 95.5854 30.6114 97.9172 28.18C100.248 25.848 103.391 24.6321 106.837 24.6321C110.486 24.6321 113.021 25.8479 114.845 27.6722C116.366 29.1932 117.277 31.1192 117.886 33.0451L129.948 28.9897C129.035 25.4421 127.109 21.8942 124.272 18.955C120.218 15.0025 114.338 12.1641 106.532 12.1641Z" fill="white" style="fill:white;fill-opacity:1;"/>
</svg>
